<svg width="32" height="32" viewBox="0 0 32 32" fill="none" xmlns="http://www.w3.org/2000/svg">
<path d="M24.5867 4.08008H7.41341C6.53011 4.08254 5.6837 4.43452 5.05911 5.05911C4.43452 5.6837 4.08254 6.53011 4.08008 7.41341V24.5867C4.08254 25.47 4.43452 26.3165 5.05911 26.941C5.6837 27.5656 6.53011 27.9176 7.41341 27.9201H24.5867C25.4708 27.9201 26.3186 27.5689 26.9438 26.9438C27.5689 26.3186 27.9201 25.4708 27.9201 24.5867V7.41341C27.9201 6.52936 27.5689 5.68151 26.9438 5.05639C26.3186 4.43127 25.4708 4.08008 24.5867 4.08008ZM26.5867 24.5867C26.5833 25.1161 26.3714 25.6228 25.9971 25.9971C25.6228 26.3714 25.1161 26.5833 24.5867 26.5867H7.41341C6.88406 26.5833 6.37738 26.3714 6.00306 25.9971C5.62874 25.6228 5.41691 25.1161 5.41341 24.5867V7.41341C5.41691 6.88406 5.62874 6.37738 6.00306 6.00306C6.37738 5.62874 6.88406 5.41691 7.41341 5.41341H24.5867C25.1161 5.41691 25.6228 5.62874 25.9971 6.00306C26.3714 6.37738 26.5833 6.88406 26.5867 7.41341V24.5867Z" fill="white"/>
<path d="M8.50122 14.3304C8.50122 13.9768 8.6417 13.6376 8.89175 13.3876C9.14179 13.1375 9.48093 12.9971 9.83455 12.9971C10.1882 12.9971 10.5273 13.1375 10.7774 13.3876C11.0274 13.6376 11.1679 13.9768 11.1679 14.3304V22.9971C11.1679 23.3507 11.0274 23.6898 10.7774 23.9399C10.5273 24.1899 10.1882 24.3304 9.83455 24.3304C9.48093 24.3304 9.14179 24.1899 8.89175 23.9399C8.6417 23.6898 8.50122 23.3507 8.50122 22.9971V14.3304Z" fill="white"/>
<path d="M9.83455 10.3249C10.5709 10.3249 11.1679 9.72792 11.1679 8.99154C11.1679 8.25516 10.5709 7.6582 9.83455 7.6582C9.09817 7.6582 8.50122 8.25516 8.50122 8.99154C8.50122 9.72792 9.09817 10.3249 9.83455 10.3249Z" fill="white"/>
<path d="M23.4933 17.8271V23.0005C23.4933 23.3541 23.3528 23.6932 23.1027 23.9433C22.8527 24.1933 22.5136 24.3338 22.1599 24.3338C21.8063 24.3338 21.4672 24.1933 21.2171 23.9433C20.9671 23.6932 20.8266 23.3541 20.8266 23.0005V17.8271C20.8266 17.256 20.5997 16.7083 20.1959 16.3045C19.7921 15.9007 19.2444 15.6738 18.6733 15.6738C18.1022 15.6738 17.5545 15.9007 17.1506 16.3045C16.7468 16.7083 16.5199 17.256 16.5199 17.8271V23.0005C16.5199 23.3541 16.3795 23.6932 16.1294 23.9433C15.8794 24.1933 15.5402 24.3338 15.1866 24.3338C14.833 24.3338 14.4938 24.1933 14.2438 23.9433C13.9937 23.6932 13.8533 23.3541 13.8533 23.0005V14.3338C13.8588 13.9819 14.001 13.6459 14.2499 13.3971C14.4987 13.1482 14.8347 13.006 15.1866 13.0005C15.4124 12.9943 15.6357 13.0493 15.8329 13.1596C16.0301 13.2699 16.1937 13.4314 16.3066 13.6271C17.0398 13.2116 17.8692 12.9959 18.7119 13.0014C19.5546 13.007 20.381 13.2338 21.1086 13.659C21.8362 14.0842 22.4394 14.693 22.8579 15.4244C23.2763 16.1559 23.4955 16.9844 23.4933 17.8271Z" fill="white"/>
</svg>
